<?xml version="1.0" encoding="UTF-8"?>
<svg width="161.1mm" height="55.795mm" version="1.1" viewBox="0 0 161.10034 55.794544" xmlns="http://www.w3.org/2000/svg" xmlns:cc="http://creativecommons.org/ns#" xmlns:dc="http://purl.org/dc/elements/1.1/" xmlns:rdf="http://www.w3.org/1999/02/22-rdf-syntax-ns#">
<metadata>
<rdf:RDF>
<cc:Work rdf:about="">
<dc:format>image/svg+xml</dc:format>
<dc:type rdf:resource="http://purl.org/dc/dcmitype/StillImage"/>
<dc:title/>
</cc:Work>
</rdf:RDF>
</metadata>
<g transform="translate(-22.792 -33.089)">
<path d="m152.67 33.089c-5.7662 0-10.408 4.6421-10.408 10.408 0 3.115 1.3548 5.9019 3.5096 7.8062-2.1548 1.9043-3.5096 4.6912-3.5096 7.8062 0 5.7662 4.6421 10.408 10.408 10.408h5.2042v-5.2041h-5.2042c-2.8831 0-5.2041-2.321-5.2041-5.2042s2.321-5.2041 5.2041-5.2041v-5.2042c-2.8831 0-5.2041-2.321-5.2041-5.2041 0-2.8831 2.321-5.2042 5.2041-5.2042h5.2042v-5.2041z" fill="#c698c2"/>
<rect x="155.27" y="33.089" width="5.2041" height="5.2041" ry="2.6021" fill="#7ae4b1"/>
<rect x="150.06" y="48.701" width="5.2041" height="5.2041" ry="2.6021" fill="#7ae4b1"/>
<rect x="155.27" y="64.314" width="5.2041" height="5.2041" ry="2.6021" fill="#7ae4b1"/>
<path d="m131.7 38.44c7.1353 7.1353 7.1353 18.624 0 25.759l-18.4 18.399-3.6799-3.6799 14.72-14.72 3.6799-3.6799v-1e-5c5.0967-5.0967 5.0967-13.303 0-18.399-5.0966-5.0966-13.303-5.0966-18.399 0v1e-5l-3.6799-3.6799c7.1353-7.1353 18.624-7.1353 25.759 0zm-25.759 0v1e-5l3.6799 3.6799c-2.0386 2.0387-5.3211 2.0387-7.3597 1e-5v-2e-5c-5.0967-5.0966-13.303-5.0966-18.399 0-5.0967 5.0966-5.0967 13.303 0 18.399v1e-5l3.6799 3.6799 15.891 15.891 2.5085 2.5085 1.84 1.84-3.6799 3.6799-23.919-23.919c-7.1353-7.1353-7.1353-18.624 0-25.759s18.624-7.1353 25.759 0z" fill="#c698c2"/>
<rect transform="matrix(-.70711 -.70711 -.70711 .70711 0 0)" x="-138.52" y="-24.314" width="5.2041" height="5.2041" ry="2.6021" fill="#7ae4b1"/>
<rect transform="matrix(-.70711 -.70711 -.70711 .70711 0 0)" x="-138.52" y="-16.507" width="5.2041" height="5.2041" ry="2.6021" fill="#7ae4b1"/>
<path d="m41.006 33.089c-10.091 0-18.214 8.1237-18.214 18.215s8.1237 18.215 18.214 18.215c5.1066 0 9.7093-2.0805 13.01-5.4435v2.8414h5.2041v-31.225h-5.2041v2.8414c-3.3012-3.363-7.9039-5.4435-13.01-5.4435zm0 5.2041c7.2078 0 13.01 5.8026 13.01 13.01 0 7.2078-5.8026 13.01-13.01 13.01-7.2077 0-13.01-5.8026-13.01-13.01 0-7.2078 5.8026-13.01 13.01-13.01z" fill="#c698c2"/>
<rect x="54.016" y="33.089" width="5.2041" height="5.2041" ry="2.6021" fill="#7ae4b1"/>
<rect x="54.016" y="64.314" width="5.2041" height="5.2041" ry="2.6021" fill="#7ae4b1"/>
<path d="m176.09 33.089c-5.7662 0-10.408 4.6421-10.408 10.408 0 3.115 1.3547 5.9019 3.5096 7.8062-2.1549 1.9043-3.5096 4.6912-3.5096 7.8062 0 5.7662 4.6421 10.408 10.408 10.408h5.2041v-5.2041h-5.2041c-2.8831 0-5.2042-2.321-5.2042-5.2042s2.3211-5.2041 5.2042-5.2041v-5.2042c-2.8831 0-5.2042-2.321-5.2042-5.2041 0-2.8831 2.3211-5.2042 5.2042-5.2042h5.2041v-5.2041z" fill="#c698c2"/>
<rect x="178.69" y="33.089" width="5.2041" height="5.2041" ry="2.6021" fill="#7ae4b1"/>
<rect x="173.48" y="48.701" width="5.2041" height="5.2041" ry="2.6021" fill="#7ae4b1"/>
<rect x="178.69" y="64.314" width="5.2041" height="5.2041" ry="2.6021" fill="#7ae4b1"/>
<path d="m64.425 35.691v31.225h5.2042v-31.225z" fill="#c698c2"/>
<rect x="64.425" y="33.089" width="5.2041" height="5.2041" ry="2.6021" fill="#7ae4b1"/>
<rect x="64.425" y="64.314" width="5.2041" height="5.2041" ry="2.6021" fill="#7ae4b1"/>
</g>
</svg>
