<?xml version="1.0" encoding="UTF-8" standalone="no"?>
<!-- Created with Inkscape (http://www.inkscape.org/) -->

<svg
   xmlns:dc="http://purl.org/dc/elements/1.1/"
   xmlns:cc="http://creativecommons.org/ns#"
   xmlns:rdf="http://www.w3.org/1999/02/22-rdf-syntax-ns#"
   xmlns:svg="http://www.w3.org/2000/svg"
   xmlns="http://www.w3.org/2000/svg"
   xmlns:sodipodi="http://sodipodi.sourceforge.net/DTD/sodipodi-0.dtd"
   xmlns:inkscape="http://www.inkscape.org/namespaces/inkscape"
   width="161.10034mm"
   height="55.794544mm"
   viewBox="0 0 161.10034 55.794544"
   version="1.1"
   id="svg8"
   inkscape:version="0.92.2 (5c3e80d, 2017-08-06)"
   sodipodi:docname="aimee-logo.svg">
  <defs
     id="defs2" />
  <sodipodi:namedview
     id="base"
     pagecolor="#ffffff"
     bordercolor="#666666"
     borderopacity="1.0"
     inkscape:pageopacity="0.0"
     inkscape:pageshadow="2"
     inkscape:zoom="0.64"
     inkscape:cx="226.87461"
     inkscape:cy="79.127946"
     inkscape:document-units="mm"
     inkscape:current-layer="layer1"
     showgrid="false"
     inkscape:snap-center="true"
     inkscape:snap-bbox="true"
     inkscape:snap-bbox-midpoints="false"
     inkscape:snap-object-midpoints="true"
     inkscape:snap-smooth-nodes="false"
     inkscape:bbox-nodes="true"
     showguides="false"
     inkscape:guide-bbox="true"
     inkscape:snap-bbox-edge-midpoints="true"
     inkscape:bbox-paths="true"
     inkscape:window-width="1366"
     inkscape:window-height="745"
     inkscape:window-x="-8"
     inkscape:window-y="-8"
     inkscape:window-maximized="1"
     fit-margin-top="0"
     fit-margin-left="0"
     fit-margin-right="0"
     fit-margin-bottom="0">
    <sodipodi:guide
       position="3641.2313,-2592.8962"
       orientation="0,1"
       id="guide5132"
       inkscape:locked="false" />
    <sodipodi:guide
       position="7292.7684,-3060.3808"
       orientation="0,1"
       id="guide5134"
       inkscape:locked="false" />
    <sodipodi:guide
       position="18070.325,-2826.6386"
       orientation="0,1"
       id="guide5138"
       inkscape:locked="false" />
    <sodipodi:guide
       position="-16.297536,32.929739"
       orientation="1,0"
       id="guide5262"
       inkscape:locked="false" />
    <sodipodi:guide
       position="182.60195,32.929739"
       orientation="1,0"
       id="guide5264"
       inkscape:locked="false" />
    <sodipodi:guide
       position="83.152208,32.929739"
       orientation="0,1"
       id="guide5268"
       inkscape:locked="false" />
    <sodipodi:guide
       position="115.28787,74.430929"
       orientation="0,1"
       id="guide5270"
       inkscape:locked="false" />
  </sodipodi:namedview>
  <metadata
     id="metadata5">
    <rdf:RDF>
      <cc:Work
         rdf:about="">
        <dc:format>image/svg+xml</dc:format>
        <dc:type
           rdf:resource="http://purl.org/dc/dcmitype/StillImage" />
        <dc:title></dc:title>
      </cc:Work>
    </rdf:RDF>
  </metadata>
  <g
     inkscape:label="Layer 1"
     inkscape:groupmode="layer"
     id="layer1"
     transform="translate(-22.791562,-33.088715)">
    <path
       inkscape:connector-curvature="0"
       style="fill:#c698c2;fill-opacity:1;stroke:none;stroke-width:0.07285807;stroke-miterlimit:4;stroke-dasharray:none;stroke-opacity:1"
       d="m 152.66696,33.08875 c -5.7662,0 -10.4083,4.64209 -10.4083,10.40829 v 0 c 0,3.11501 1.3548,5.90194 3.5096,7.80621 -2.1548,1.90427 -3.5096,4.69121 -3.5096,7.80622 v 0 c 0,5.76619 4.6421,10.40829 10.4083,10.40829 h 5.2042 v -5.20414 h -5.2042 v 0 c -2.8831,0 -5.2041,-2.32105 -5.2041,-5.20415 v 0 c 0,-2.8831 2.321,-5.20413 5.2041,-5.20413 v -5.20416 c -2.8831,0 -5.2041,-2.32105 -5.2041,-5.20414 v 0 c 0,-2.8831 2.321,-5.20415 5.2041,-5.20415 h 5.2042 v -5.20414 z"
       id="path5144" />
    <rect
       y="33.088715"
       x="155.26906"
       height="5.204145"
       width="5.204145"
       id="rect5146"
       style="fill:#7ae4b1;fill-opacity:1;stroke:none;stroke-width:0.01052763;stroke-miterlimit:4;stroke-dasharray:none;stroke-opacity:1"
       ry="2.6020725" />
    <rect
       style="fill:#7ae4b1;fill-opacity:1;stroke:none;stroke-width:0.01052763;stroke-miterlimit:4;stroke-dasharray:none;stroke-opacity:1"
       id="rect5148"
       width="5.204145"
       height="5.204145"
       x="150.06496"
       y="48.701202"
       ry="2.6020725" />
    <rect
       y="64.31369"
       x="155.26906"
       height="5.204145"
       width="5.204145"
       id="rect5150"
       style="fill:#7ae4b1;fill-opacity:1;stroke:none;stroke-width:0.01052763;stroke-miterlimit:4;stroke-dasharray:none;stroke-opacity:1"
       ry="2.6020725" />
    <path
       style="fill:#c698c2;fill-opacity:1;stroke:none;stroke-width:0.02105525;stroke-miterlimit:4;stroke-dasharray:none;stroke-opacity:1"
       d="m 131.70306,38.44022 c 7.1353,7.13531 7.1353,18.62393 0,25.75925 l -18.3995,18.39947 -3.6799,-3.67989 14.7196,-14.71958 3.6799,-3.67989 v -10e-6 c 5.0967,-5.09666 5.0967,-13.30281 0,-18.39947 -5.0966,-5.09665 -13.3028,-5.09665 -18.3994,0 v 10e-6 l -3.6799,-3.67989 c 7.1353,-7.13531 18.6239,-7.13531 25.7592,0 z m -25.7593,0 v 1e-5 l 3.6799,3.67988 c -2.0386,2.03866 -5.3211,2.03867 -7.3597,1e-5 v -1e-5 -10e-6 c -5.096698,-5.09665 -13.302898,-5.09665 -18.399498,0 -5.0967,5.09665 -5.0967,13.30282 0,18.39947 v 10e-6 l 3.6799,3.67989 15.890898,15.89095 2.5085,2.5085 1.84,1.83995 -3.6799,3.67989 -23.919298,-23.91929 c -7.1353,-7.13531 -7.1353,-18.62394 0,-25.75925 7.1353,-7.13531 18.6239,-7.1353 25.759198,0 z"
       id="path5154"
       inkscape:connector-curvature="0" />
    <rect
       y="-24.313568"
       x="-138.52397"
       height="5.204145"
       width="5.204145"
       id="rect5156"
       style="fill:#7ae4b1;fill-opacity:1;stroke:none;stroke-width:0.01052763;stroke-miterlimit:4;stroke-dasharray:none;stroke-opacity:1"
       ry="2.6020725"
       transform="matrix(-0.70710678,-0.70710678,-0.70710678,0.70710678,0,0)" />
    <rect
       style="fill:#7ae4b1;fill-opacity:1;stroke:none;stroke-width:0.01052763;stroke-miterlimit:4;stroke-dasharray:none;stroke-opacity:1"
       id="rect5158"
       width="5.204145"
       height="5.204145"
       x="-138.52397"
       y="-16.507294"
       ry="2.6020725"
       transform="matrix(-0.70710678,-0.70710678,-0.70710678,0.70710678,0,0)" />
    <path
       inkscape:connector-curvature="0"
       style="fill:#c698c2;fill-opacity:1;stroke:none;stroke-width:0.01052763;stroke-miterlimit:4;stroke-dasharray:none;stroke-opacity:1"
       d="m 41.006062,33.08875 c -10.0908,0 -18.2145,8.12369 -18.2145,18.21454 0,10.09085 8.1237,18.21453 18.2145,18.21453 5.1066,0 9.7093,-2.08049 13.0105,-5.44349 v 2.84141 h 5.2041 V 51.30329 35.69081 h -5.2041 v 2.84142 c -3.3012,-3.36299 -7.9039,-5.44348 -13.0105,-5.44348 z m 0,5.20414 c 7.2078,0 13.0104,5.80263 13.0104,13.01038 0,7.20776 -5.8026,13.01041 -13.0104,13.01041 -7.2077,0 -13.0103,-5.80265 -13.0103,-13.01041 0,-7.20775 5.8026,-13.01038 13.0103,-13.01038 z"
       id="path5162" />
    <rect
       style="fill:#7ae4b1;fill-opacity:1;stroke:none;stroke-width:0.01052763;stroke-miterlimit:4;stroke-dasharray:none;stroke-opacity:1"
       id="rect5164"
       width="5.204145"
       height="5.204145"
       x="54.016487"
       y="33.088715"
       ry="2.6020725" />
    <rect
       y="64.31369"
       x="54.016487"
       height="5.204145"
       width="5.204145"
       id="rect5166"
       style="fill:#7ae4b1;fill-opacity:1;stroke:none;stroke-width:0.01052763;stroke-miterlimit:4;stroke-dasharray:none;stroke-opacity:1"
       ry="2.6020725" />
    <path
       id="path5170"
       d="m 176.08566,33.08875 c -5.7662,0 -10.4083,4.64209 -10.4083,10.40829 v 0 c 0,3.11501 1.3547,5.90194 3.5096,7.80621 -2.1549,1.90427 -3.5096,4.69121 -3.5096,7.80622 v 0 c 0,5.76619 4.6421,10.40829 10.4083,10.40829 h 5.2041 v -5.20414 h -5.2041 v 0 c -2.8831,0 -5.2042,-2.32105 -5.2042,-5.20415 v 0 c 0,-2.8831 2.3211,-5.20413 5.2042,-5.20413 v -5.20416 c -2.8831,0 -5.2042,-2.32105 -5.2042,-5.20414 v 0 c 0,-2.8831 2.3211,-5.20415 5.2042,-5.20415 h 5.2041 v -5.20414 z"
       style="fill:#c698c2;fill-opacity:1;stroke:none;stroke-width:0.07285807;stroke-miterlimit:4;stroke-dasharray:none;stroke-opacity:1"
       inkscape:connector-curvature="0" />
    <rect
       ry="2.6020725"
       style="fill:#7ae4b1;fill-opacity:1;stroke:none;stroke-width:0.01052763;stroke-miterlimit:4;stroke-dasharray:none;stroke-opacity:1"
       id="rect5173"
       width="5.204145"
       height="5.204145"
       x="178.68776"
       y="33.088715" />
    <rect
       ry="2.6020725"
       y="48.701202"
       x="173.48352"
       height="5.204145"
       width="5.204145"
       id="rect5175"
       style="fill:#7ae4b1;fill-opacity:1;stroke:none;stroke-width:0.01052763;stroke-miterlimit:4;stroke-dasharray:none;stroke-opacity:1" />
    <rect
       ry="2.6020725"
       style="fill:#7ae4b1;fill-opacity:1;stroke:none;stroke-width:0.01052763;stroke-miterlimit:4;stroke-dasharray:none;stroke-opacity:1"
       id="rect5177"
       width="5.204145"
       height="5.204145"
       x="178.68776"
       y="64.31369" />
    <path
       style="fill:#c698c2;fill-opacity:1;stroke:none;stroke-width:0.02785352;stroke-miterlimit:4;stroke-dasharray:none;stroke-opacity:1"
       d="m 64.424762,35.69081 v 31.22493 h 5.2042 V 35.69081 Z"
       id="path5181"
       inkscape:connector-curvature="0" />
    <rect
       style="fill:#7ae4b1;fill-opacity:1;stroke:none;stroke-width:0.01052763;stroke-miterlimit:4;stroke-dasharray:none;stroke-opacity:1"
       id="rect5183"
       width="5.204145"
       height="5.204145"
       x="64.424812"
       y="33.088715"
       ry="2.6020725" />
    <rect
       y="64.31369"
       x="64.424812"
       height="5.204145"
       width="5.204145"
       id="rect5185"
       style="fill:#7ae4b1;fill-opacity:1;stroke:none;stroke-width:0.01052763;stroke-miterlimit:4;stroke-dasharray:none;stroke-opacity:1"
       ry="2.6020725" />
  </g>
</svg>
