<?xml version="1.0" encoding="UTF-8" standalone="no"?>
<!-- Created with Inkscape (http://www.inkscape.org/) -->

<svg
   xmlns:dc="http://purl.org/dc/elements/1.1/"
   xmlns:cc="http://creativecommons.org/ns#"
   xmlns:rdf="http://www.w3.org/1999/02/22-rdf-syntax-ns#"
   xmlns:svg="http://www.w3.org/2000/svg"
   xmlns="http://www.w3.org/2000/svg"
   xmlns:sodipodi="http://sodipodi.sourceforge.net/DTD/sodipodi-0.dtd"
   xmlns:inkscape="http://www.inkscape.org/namespaces/inkscape"
   width="7.5372519mm"
   height="6.8245282mm"
   viewBox="0 0 7.5372519 6.8245282"
   version="1.1"
   id="svg8"
   inkscape:version="0.92.2 (5c3e80d, 2017-08-06)"
   sodipodi:docname="menu.svg">
  <defs
     id="defs2">
    <clipPath
       clipPathUnits="userSpaceOnUse"
       id="clipPath10012">
      <rect
         y="-152.1785"
         x="34.137493"
         height="98.391922"
         width="171.77246"
         id="rect10014"
         style="fill:#3482f1;fill-opacity:1;stroke:none;stroke-width:0.59069628;stroke-miterlimit:4;stroke-dasharray:none;stroke-opacity:1" />
    </clipPath>
  </defs>
  <sodipodi:namedview
     id="base"
     pagecolor="#ffffff"
     bordercolor="#666666"
     borderopacity="1.0"
     inkscape:pageopacity="0.0"
     inkscape:pageshadow="2"
     inkscape:zoom="11.313708"
     inkscape:cx="-6.1906829"
     inkscape:cy="14.22829"
     inkscape:document-units="mm"
     inkscape:current-layer="layer1"
     showgrid="false"
     inkscape:snap-center="true"
     inkscape:snap-bbox="true"
     inkscape:snap-bbox-midpoints="false"
     inkscape:snap-object-midpoints="true"
     inkscape:snap-smooth-nodes="false"
     inkscape:bbox-nodes="true"
     showguides="true"
     inkscape:guide-bbox="true"
     inkscape:snap-bbox-edge-midpoints="true"
     inkscape:bbox-paths="true"
     inkscape:window-width="1366"
     inkscape:window-height="745"
     inkscape:window-x="-8"
     inkscape:window-y="-8"
     inkscape:window-maximized="1"
     fit-margin-top="0"
     fit-margin-left="0"
     fit-margin-right="0"
     fit-margin-bottom="0"
     inkscape:snap-global="true">
    <sodipodi:guide
       position="3353.3749,-2532.5835"
       orientation="0,1"
       id="guide5132"
       inkscape:locked="false" />
    <sodipodi:guide
       position="7004.9119,-3000.0681"
       orientation="0,1"
       id="guide5134"
       inkscape:locked="false" />
    <sodipodi:guide
       position="17782.468,-2766.3259"
       orientation="0,1"
       id="guide5138"
       inkscape:locked="false" />
  </sodipodi:namedview>
  <metadata
     id="metadata5">
    <rdf:RDF>
      <cc:Work
         rdf:about="">
        <dc:format>image/svg+xml</dc:format>
        <dc:type
           rdf:resource="http://purl.org/dc/dcmitype/StillImage" />
        <dc:title></dc:title>
      </cc:Work>
    </rdf:RDF>
  </metadata>
  <g
     inkscape:label="Layer 1"
     inkscape:groupmode="layer"
     id="layer1"
     transform="translate(-310.64791,-142.37134)">
    <g
       style="fill:#dceafd;fill-opacity:1;stroke:none;stroke-opacity:1"
       id="g5257"
       transform="matrix(0.69230766,0,0,0.69230766,-203.42512,-68.650113)" />
    <g
       style="fill:#dceafd;fill-opacity:1;stroke:none;stroke-opacity:1"
       id="g5261"
       transform="matrix(0.69230766,0,0,0.69230766,-189.11472,-75.232895)" />
    <g
       id="g4909"
       transform="matrix(0.70920368,0,0,0.70920368,-48.09055,17.525207)"
       style="fill:#dceafd;fill-opacity:1;stroke:none" />
    <g
       id="g4913"
       transform="matrix(0.70920368,0,0,0.70920368,-37.517296,9.025141)"
       style="fill:#dceafd;fill-opacity:1;stroke:none" />
    <g
       transform="matrix(0.70920368,0,0,0.70920368,-27.773317,14.415427)"
       id="g4917"
       style="fill:#dceafd;fill-opacity:1;stroke:none" />
    <g
       id="g4948"
       transform="matrix(0.62541188,0,0,0.62541188,-157.58859,-58.477552)"
       style="fill:#dceafd;fill-opacity:1;stroke:none" />
    <g
       id="g4952"
       transform="matrix(0.62541188,0,0,0.62541188,-130.16497,-65.059222)"
       style="fill:#dceafd;fill-opacity:1;stroke:none" />
    <g
       id="g5009"
       transform="matrix(0.62541188,0,0,0.62541188,-163.31326,-49.714199)"
       style="fill:#dceafd;fill-opacity:1;stroke:none" />
    <g
       transform="matrix(0.62541188,0,0,0.62541188,-144.29955,-46.789012)"
       id="g5013"
       style="fill:#dceafd;fill-opacity:1;stroke:none" />
    <g
       id="g5017"
       transform="matrix(0.62541188,0,0,0.62541188,-126.93125,-48.43443)"
       style="fill:#dceafd;fill-opacity:1;stroke:none" />
    <g
       id="g5021"
       transform="matrix(0.62541188,0,0,0.62541188,-144.48237,-61.414947)"
       style="fill:#dceafd;fill-opacity:1;stroke:none" />
    <g
       id="g5065"
       transform="matrix(0.62541188,0,0,-0.62541188,-155.08952,22.908614)"
       style="fill:#dceafd;fill-opacity:1;stroke:none" />
    <g
       id="g5069"
       transform="matrix(0.62541188,0,0,-0.62541188,-165.14485,35.706307)"
       style="fill:#dceafd;fill-opacity:1;stroke:none" />
    <g
       id="g5073"
       transform="matrix(0.62541188,0,0,-0.62541188,-136.44145,23.822735)"
       style="fill:#dceafd;fill-opacity:1;stroke:none" />
    <g
       transform="matrix(0.62541188,0,0,-0.62541188,-122.91246,23.639911)"
       id="g5077"
       style="fill:#dceafd;fill-opacity:1;stroke:none" />
    <g
       id="g5154"
       transform="matrix(0.62541188,0,0,0.62541188,-166.3285,-70.549883)"
       style="fill:#dceafd;fill-opacity:1;stroke:none" />
    <g
       transform="matrix(0.62541188,0,0,0.62541188,-157.02061,-61.371271)"
       id="g5161"
       style="fill:#dceafd;fill-opacity:1;stroke:none" />
    <g
       id="g5165"
       transform="matrix(0.62541188,0,0,0.62541188,-153.2716,-73.006131)"
       style="fill:#dceafd;fill-opacity:1;stroke:none" />
    <g
       transform="matrix(0.62541188,0,0,0.62541188,-142.02457,-70.032778)"
       id="g5169"
       style="fill:#dceafd;fill-opacity:1;stroke:none" />
    <g
       id="g5215"
       transform="matrix(0.62541188,0,0,0.62541188,-181.47552,-52.446511)"
       style="fill:#dceafd;fill-opacity:1;stroke:none" />
    <g
       transform="matrix(0.62541188,0,0,0.62541188,-151.87127,-57.876112)"
       id="g5219"
       style="fill:#dceafd;fill-opacity:1;stroke:none" />
    <g
       id="g5296"
       transform="matrix(0.62541188,0,0,0.62541188,-147.8466,-57.0991)"
       style="fill:#dceafd;fill-opacity:1;stroke:none" />
    <g
       id="g5304"
       transform="matrix(0.62541188,0,0,0.62541188,-165.68672,-53.091537)"
       style="fill:#dceafd;fill-opacity:1;stroke:none" />
    <g
       id="g11193"
       transform="translate(0,1.4967094)" />
    <path
       inkscape:connector-curvature="0"
       id="path11101"
       d="m 316.48071,145.4014 c -0.45537,0 -0.86644,0.18259 -1.16461,0.4787 -0.092,-0.0352 -0.19158,-0.0553 -0.29622,-0.0553 -0.36097,0 -0.6655,0.22973 -0.77825,0.55123 -0.14911,-0.14821 -0.35478,-0.23964 -0.5826,-0.23964 -0.3143,0 -0.58649,0.17388 -0.72606,0.43107 -0.13418,-0.0942 -0.29758,-0.14986 -0.47471,-0.14986 -0.36591,0 -0.67422,0.23591 -0.78315,0.56434 -0.0482,-0.009 -0.0976,-0.0139 -0.14837,-0.0139 -0.45742,0 -0.82572,0.36829 -0.82572,0.82571 0,0.45742 0.3683,0.82563 0.82572,0.82563 0.11784,0 0.22952,-0.0249 0.33076,-0.069 0.0696,0.0534 0.15651,0.0855 0.25142,0.0855 0.15674,0 0.29242,-0.0865 0.36236,-0.21458 0.15113,0.17318 0.37313,0.28279 0.62209,0.28279 0.13893,0 0.26937,-0.0344 0.38402,-0.0945 0.0236,0.20599 0.19741,0.36502 0.40992,0.36502 0.15496,0 0.28917,-0.0847 0.35978,-0.21035 0.11143,0.0559 0.23701,0.088 0.37059,0.088 0.1141,0 0.22262,-0.0229 0.3213,-0.0644 0.0736,0.11255 0.20053,0.18679 0.34559,0.18679 0.11311,0 0.21518,-0.0451 0.2896,-0.11833 0.15118,0.17534 0.37467,0.28644 0.6254,0.28644 0.34538,0 0.63967,-0.21007 0.76324,-0.50982 0.67817,-0.20535 1.16925,-0.83319 1.16925,-1.58015 0,-0.91484 -0.73651,-1.65135 -1.65135,-1.65135 z"
       style="fill:#c698c2;fill-opacity:1;stroke:#91b8d3;stroke-width:0.10621206;stroke-miterlimit:4;stroke-dasharray:none;stroke-opacity:1" />
    <rect
       style="fill:#7ae4b1;fill-opacity:1;stroke:none;stroke-width:0.11750361;stroke-miterlimit:4;stroke-dasharray:none;stroke-opacity:1"
       id="rect11103"
       width="5.4505472"
       height="1.3294016"
       x="311.58035"
       y="142.37134" />
    <rect
       y="146.16014"
       x="311.58035"
       height="1.3294016"
       width="5.4505472"
       id="rect11105"
       style="fill:#7ae4b1;fill-opacity:1;stroke:none;stroke-width:0.11750361;stroke-miterlimit:4;stroke-dasharray:none;stroke-opacity:1" />
    <rect
       style="fill:#7ae4b1;fill-opacity:1;stroke:none;stroke-width:0.11750361;stroke-miterlimit:4;stroke-dasharray:none;stroke-opacity:1"
       id="rect11107"
       width="5.4505472"
       height="1.3294016"
       x="311.58035"
       y="144.29897" />
  </g>
</svg>
